<?xml version="1.0" encoding="UTF-8" standalone="no"?>
<!-- Created with Inkscape (http://www.inkscape.org/) -->

<svg
   width="199.99985mm"
   height="40.799103mm"
   viewBox="0 0 199.99985 40.799103"
   version="1.1"
   id="svg1"
   xml:space="preserve"
   inkscape:version="1.4.4 (dcaf3e7d9e, 2026-05-05)"
   sodipodi:docname="logo.svg"
   inkscape:export-filename="logo.pdf"
   inkscape:export-xdpi="96"
   inkscape:export-ydpi="96"
   xmlns:inkscape="http://www.inkscape.org/namespaces/inkscape"
   xmlns:sodipodi="http://sodipodi.sourceforge.net/DTD/sodipodi-0.dtd"
   xmlns="http://www.w3.org/2000/svg"
   xmlns:svg="http://www.w3.org/2000/svg"><sodipodi:namedview
     id="namedview1"
     pagecolor="#ffffff"
     bordercolor="#000000"
     borderopacity="0.25"
     inkscape:showpageshadow="2"
     inkscape:pageopacity="0.0"
     inkscape:pagecheckerboard="0"
     inkscape:deskcolor="#d1d1d1"
     inkscape:document-units="mm"
     inkscape:zoom="0.79860814"
     inkscape:cx="515.89757"
     inkscape:cy="-10.643518"
     inkscape:window-width="1920"
     inkscape:window-height="1124"
     inkscape:window-x="0"
     inkscape:window-y="0"
     inkscape:window-maximized="1"
     inkscape:current-layer="layer1" /><defs
     id="defs1" /><g
     inkscape:label="Livello 1"
     inkscape:groupmode="layer"
     id="layer1"
     transform="translate(-4.1923387,-118.11667)"><path
       style="font-size:41.5292px;font-family:Rockout;-inkscape-font-specification:Rockout;letter-spacing:-0.147428px;stroke:#ffffff;stroke-width:0.486577;stroke-linecap:round"
       d="m 52.936964,128.37725 v 12.16676 h 4.055586 q 2.514464,0 4.298922,-1.78446 1.784457,-1.78445 1.784457,-4.29892 0,-2.51446 -1.784457,-4.29892 -1.784458,-1.78446 -4.298922,-1.78446 z m 0,13.56594 v 10.76758 h -4.055586 v -28.3891 h 8.111172 q 4.197532,0 7.15811,2.98085 2.980856,2.96058 2.980856,7.15811 0,4.19753 -2.960578,7.15811 -1.581679,1.58168 -3.508082,2.33196 l 8.760066,8.76007 h -5.718377 z m 29.093347,6.71199 q 4.197532,0 7.15811,-2.96057 2.980856,-2.98086 2.980856,-7.17839 0,-4.19753 -2.980856,-7.15811 -2.960578,-2.98086 -7.15811,-2.98086 -4.197531,0 -7.178387,2.98086 -2.960578,2.96058 -2.960578,7.15811 0,4.19753 2.960578,7.17839 2.980856,2.96057 7.178387,2.96057 z m 0,4.05559 q -5.880599,0 -10.037575,-4.15698 -4.156976,-4.15697 -4.156976,-10.03757 0,-5.8806 4.156976,-10.03758 4.156976,-4.15697 10.037575,-4.15697 5.8806,0 10.037576,4.15697 4.156976,4.15698 4.156976,10.03758 0,5.8806 -4.156976,10.03757 -4.156976,4.15698 -10.037576,4.15698 z m 29.498909,-28.3891 h 4.05558 v 4.05558 h -4.05558 q -4.19753,0 -7.17839,2.98086 -2.96058,2.96058 -2.96058,7.15811 0,4.19753 2.96058,7.17839 2.98086,2.96057 7.17839,2.96057 h 4.05558 v 4.05559 h -4.05558 q -5.8806,0 -10.03758,-4.15698 -4.156973,-4.15697 -4.156973,-10.03757 0,-5.8806 4.156973,-10.03758 4.15698,-4.15697 10.03758,-4.15697 z m 9.84959,16.48595 v 11.90315 h -4.05559 v -28.3891 h 4.05559 v 10.76758 l 10.76758,-10.76758 h 5.71837 l -10.7473,10.7473 10.15924,17.6418 h -4.6842 l -8.4559,-14.66094 z m 16.41964,-16.48595 h 4.05559 v 24.33351 h 14.19455 v 4.05559 h -18.25014 z m 23.59803,28.3891 h -4.05558 v -28.3891 h 4.05558 z m 5.93595,-19.04098 v 19.04098 h -4.05558 v -34.35081 l 14.19455,25.00268 v -19.04097 h 4.05559 v 34.35081 z m 20.1305,7.13783 v 11.90315 h -4.05558 v -28.3891 h 4.05558 v 10.76758 l 10.76759,-10.76758 h 5.71837 l -10.7473,10.7473 10.15924,17.6418 h -4.6842 l -8.4559,-14.66094 z"
       id="text1"
       aria-label="RoCKLINK" /><rect
       style="fill:#ff4d1f;fill-opacity:1;stroke:#ffffff;stroke-width:0.601067;stroke-linecap:round"
       id="rect1"
       width="39.383484"
       height="39.383484"
       x="4.4928722"
       y="118.63692"
       ry="9.9286089" /><path
       fill="#1a1a1a"
       d="m 26.114957,125.31942 -8.316314,14.25654 h 5.940222 l -2.376086,11.88045 10.692405,-16.63263 h -7.128269 z"
       id="path1"
       style="fill:#ffffff;fill-opacity:1;stroke-width:1.18804" /></g></svg>
